<mxfile host="Electron" agent="Mozilla/5.0 (Windows NT 10.0; Win64; x64) AppleWebKit/537.36 (KHTML, like Gecko) draw.io/25.0.2 Chrome/128.0.6613.186 Electron/32.2.5 Safari/537.36" version="25.0.2" pages="2">
  <diagram id="PoVS12weUNuHVpDZ-ehX" name="Page-1">
    <mxGraphModel dx="1050" dy="621" grid="1" gridSize="10" guides="1" tooltips="1" connect="1" arrows="1" fold="1" page="1" pageScale="1" pageWidth="850" pageHeight="1100" math="1" shadow="0">
      <root>
        <mxCell id="0" />
        <mxCell id="1" parent="0" />
        <mxCell id="8Ee16UervRVuuAtUmTXb-1" value="" style="rounded=0;whiteSpace=wrap;html=1;strokeColor=none;fillColor=#FFFFFF;" parent="1" vertex="1">
          <mxGeometry width="850" height="60" as="geometry" />
        </mxCell>
        <mxCell id="8Ee16UervRVuuAtUmTXb-5" value="" style="rounded=0;whiteSpace=wrap;html=1;strokeColor=#571FF0;fillColor=#3333FF;" parent="1" vertex="1">
          <mxGeometry y="60" width="850" height="440" as="geometry" />
        </mxCell>
        <mxCell id="8Ee16UervRVuuAtUmTXb-8" value="" style="group;labelBackgroundColor=none;" parent="1" vertex="1" connectable="0">
          <mxGeometry x="110" y="80" width="740" height="350" as="geometry" />
        </mxCell>
        <mxCell id="8Ee16UervRVuuAtUmTXb-6" value="&lt;h1 style=&quot;&quot;&gt;&lt;font style=&quot;font-size: 49px;&quot;&gt;Heading&lt;/font&gt;&lt;/h1&gt;&lt;p style=&quot;font-size: 27px;&quot;&gt;Lorem ipsum dolor sit amet, consectetur adipisicing elit, sed do eiusmod tempor incididunt ut labore et dolore magna aliqua.&lt;/p&gt;" style="text;html=1;strokeColor=none;fillColor=none;spacing=5;spacingTop=-20;whiteSpace=wrap;overflow=hidden;rounded=0;fontSize=24;" parent="8Ee16UervRVuuAtUmTXb-8" vertex="1">
          <mxGeometry x="400" width="340" height="350" as="geometry" />
        </mxCell>
        <mxCell id="8Ee16UervRVuuAtUmTXb-7" value="" style="ellipse;whiteSpace=wrap;html=1;aspect=fixed;strokeColor=#571FF0;fontSize=49;fillColor=#3333FF;" parent="8Ee16UervRVuuAtUmTXb-8" vertex="1">
          <mxGeometry y="90" width="80" height="80" as="geometry" />
        </mxCell>
        <mxCell id="lfPM_c1tvvUKqw6qXb7t-1" value="" style="shape=image;aspect=fixed;image=data:image/png,iVBORw0KGgoAAAANSUhEUgAAAeAAAAHgCAMAAABKCk6nAAAAbFBMVEUAAAAAADoAAGYAOjoAOpAAZrY6AAA6ADo6AGY6OpA6ZrY6kLY6kNtmAABmADpmAGZmOpBmtv+QOgCQOjqQOmaQZgCQkGaQtpCQ29uQ2/+2ZgC2///bkDrb25Db////tmb/25D//7b//9v////Dx8iBAAAObklEQVR4nO2diVrjOBZGRXdRUzMD3Q01G0s3i9//HSdOgi3b8qrF0u9zvq8qgJC8HGTpynGuqUAas/cOQFwQLA6CxUGwOAgWB8HiIFgcBIuDYHEQLA6CxUGwOAgWB8HiIFgcBIuDYHEQLA6CxUGwOAgWB8HiIFgcBIuDYHEQLA6CxUGwOAgWB8HiIFgcBIuDYHEQLA6CxUGwOAgWB8HiIFgcBIuDYHEQLA6CxUGwOAgWB8HiIFgcBIuDYHEQLA6CxUGwOAgWB8HiIFgcBIuDYHEQLI6PYAM5EFGwR10IBYLFQbA4CBYHweIgWBwEi4NgcRAsDoLFQbA4CBbCdcYRLASCxUGwOAgWx3XzF8FCIFgcBIuDYHEQrIlpXhEsCYK1abwa1zlHcPEgWBwEi4NgcfqCTa90prLPhiEFXx3XVAiWBMHiIFiUdn0DwYp8LTx3vCJYh6/Jc7fjDpYrEVwqCBYHweIgWJyeYNP9qfVrM6347AHEww6OECwIgsVBsDgIFgfBorhWoG3B/bPuLfj9+/kTEX952VAX1pNa8Ofjw/n17dtfq+vCBly3GGIK/vj9pfO6pi5swLjXr+jBKqQWXH3cMwanJLngOHVhDARrY99iaL3acfCgwkx7c7x/f/h8NGY4BCM4Bm7BlYkmuJ5kPZ/mWe9/Z5IVkzb8TSz4FB59/nzqhEkL00HAGkbWN5ofj55s70v0qfu+3Z3CpNsNdWEx+wmuns+9degXwQEZPGCWUHCUunChP/QiWAzX3MoOf+fPcYAwydw9s5IVFkfH3UvwOUw62SVMCklGguvwqJ5FczcpJBkJ/rqbRA8OiFkoeGJu1bblVVzVd5Nqw6+MwQEZFdz8l1BwnLrHxnoytPvV4NYCgotkVvB8+Nu25VUcre6xQbA4CNbG8clmI4JTrGTFqXtohoLXh79WYz7F0eoeGgSLg2BRHMsbCFaiFdxf0UCwBKOCeyuUq97thuB8WCp41ZlFcD4M1jc6grtR8fJGvYqj1T0kvadSul8guHwQLM6Y4EarNUgvb9SrOFrdQ+IS3Om3W84ognenv76BYC0G78/pr2oguGwswa6hF8Gl40x7hGAdZq7MCC4dBIuzXPCmE4rgnbFNIliQkXUr1xvvEFwUrUD35BnBhYNgbWYy09l3Fqzf3LAdr+JodfVxCrbnVqb3i1u341Ucra4+Y4IHQS+CywTB4iwX7Lkdr+JodfXpCR7vuAguki+nxv4mYMe1N+RRHK2uPAgWB8HiIFgcBItjnOtXvkGve0MexdHqyjK9QJmjYHIXrqI4wWQ+W0dxgslduI61ea38N+hVTA9eiyW49ZqzYHIXrmNOcPgNehVHqyvLjOAIG/QqjlZXlq7gtt9mK7ieXNVXaXIXLsMpOMLQ227Qq/gs+DyBfv/H+rpHpETB53QN5C6cxLRf2EvQJQi+v/nfv15IyjGDdQuhMMF1JGxuqzfCpCmcD3lHuHXk2rRXcbS6YsymHoy5aZ/iaHXFcD7FX2174Hf1pn2KK3IXLsItOObQa23ap5jchcsoWDC5C5dQsGByF07RTqLa9Y3CBJO7cAqX4Kj3jsZ3YVtxtLoajIW/KU8NgiMyFv4iWIQdw19rH3yKo9XVAMHadGZTCNYDweIgWJXe3Lm3voHg0nHlP0KwEDOC054YBIcHweL00+MgWIyx/EcIFgHB4sxkMEu8M17F0eqWzFwGs9R741McrW7JmN5F2XR+usPeeBRHq1sipn1FsCIuwZ1YGMFl01/fQLAWc+/PSbsEbe2WT3G0ugWCYHHGoqNmaN7nfCA4FAgWZyzJJIJFGAt/jfUL++yWR3G0ugUyFh0huHB66xu9qHenuXMLgn1BsDb9B8z661Z7f5oUgj2ZezwFwYWDYHEQrI291uycWyG4UHp3FhAshvPN7RmtbzQgeBvLBe8MgreBYATnAYK3MSbYWtfKAwRvwv3+nFIFv383N0/Oj6Osjpq7UEpw/XGUn493bsEHzXwmJfgi9vnWKfhguQtbf0KCr5309dcf9GDX3Kp4wdXH/V394vpE2aPlLnQ9vVC+4DhNF8nMo7/5hL8NCF6FquDPR+NMT/jFu2t4zu5YAzAnOL9jXiS4DpJOY7DL8HUIdg3C+R2sN3MP75cq+BIDuRc6Pu7rnCt2DxbOXeieW5UveKIHV7Xib38e5BLdF9wNlcoVPDcGv393RVD5Haw3s4J32q8JmEWvYU5whiB4DbKC38xD9VrfURpyiNyF1vqUY25VvuCP32q3zmD3GLkLp8Pf8gVf7ig47iccJHfhTPhbvuDLcobzXsMhchfOfjpDxsfqPck6Qu7C2U9nyPhYmUUvINOP31gEgucZHXoRrMFI1Itgj7p5YC1AIjhs3SwYG3oHgnM+VASPs1xwxiB4nJnJc84X5hYEj9MTbLo/LeQAETwOguPVzQF7rRnBgevmAIL9ms4Wyx+CY9XdkznBZR0XggdMZ09BcJC6e4LgME1nC4LDNJ0tsw+YFQWCB2SVHdYbBA+wBHdm0mUeD4L7uIdeBIetuyMIDtR0riA4UNO50V/AGkyeCzueKwi+0s+egmDfpjNjNjtsWYfTgOAruSfX2AqCryA4dNOZUfLjKVMcXnA7t0Jw2KYzwSXYDn/LOIpxji5YdfLcgGAER2o6DxAcrel9UZ9bNRxUsEHwouJodWPjTHuE4KBN70GzS4sF53gUq0DwjODSOZjg/pUXwfGa3gErJhoJjmSiowYEI3iaknIXrhCcfN9i4Su4qMxnA68Inj3QonIXDrwiWK0HjwjuzqSrHPd9K95jcEm5C82gq/YF57fPvhxsFt0TbOyfIjhs0zuA4LXFVVlJORC8triwpBwIXlvsTMqRb+5Cd1CE4CmKSMphrFdb55fgtjyffQ5FgDAp+6Qc1q0jdyyM4BhNpwPBm4uj1Q3KcsHZ7HI4jhAmjT20gGCRMGlG8PB9HkpECJMW102FsYKjScH57HI4lMOk3txpwZV5910Oj3KY1M6tlgoWRHkWjeDqKILbZatq+L6sDPY0InqCW23TgrU7bsNxBA86LoLni6PVDbFZibRH3ggK7q8s9wQfYuRtkRM8vHWA4O3F0epu35rzze0I3lgcre72rc196MZBvDaoCB6MvKOCD4aMYJdXBCNYHgSLoya449VeoETwluJodbdsbKrjInhbcbS6WzaGYBeHEXxQvwhWp3TB1vrUYH7lXqE8GMUL7kZHPa9Hu/nroHDBY7lSEPxFmYJN+0U3/B0XHG9n8gbB4hxF8GHREmy6P0VwsYK7UysEj6MhuLuqweTZoijB7ZUZwUspSbBB8HqKEuwYYxE8Q9GCm8CoL3jQ1Y+LhOBe9Hu49z5PUajgtuNOC4biBXdiYQQPKEtwT+Xo3AoaShQ8OrdC8BAEi1Og4I5bBM+QnWAz+Mp6rqwrmLnVAhQEs2w1Qb6Cp5N0uwRzhXbgLTh07sLhJ4Mi2AdfwcEzny1P8TsUDEN8BQfPXbg6hzOCJ8m2B7s/TMXRcRE8ifcYHCh34WBuZXttg17XlZnJ8xS5zKIRHIlMBA91ITgMIcKkm6fNk6x+KNTRieAAhJhkfT7eJRQ8mFsheIowYdLz7cbchSEEM4ueIlCY9PrrjxU9eHxGtUIwWhcRIEy6q18cWTnWCe7qbJV2o1/7yjy7a1DtNIt2rVYhOA4IFidEmLQ6d+G4YFP1bCPYkxCTrNW5CxGcjhBh0urchaM3ioaCe19U3FpYSaAwaVsPHggeiZBswfhdR4AwaX3uQuMQiOA47DOLnhTs8IrgzSBYnJSCp+8E2hOpprydMjN53saegjuj7ozgpjEEryOh4MVpFSYFwzryFDwIehG8lb0FdyxPeEXwRnIQPJgpIzgcSQVPXpmdgj02D2cQLM5Ogh1DL4KjkF5wo3PJ5Nlj83AmnWBT9QQPYt1GMF7DgWBxECxOMsHdqZVTMEFvBLIUDOHYXTAdNy77CebKnISEcXCF4B1ILpjFjLQgWJy9BDNnTgSCxUGwOPsJ9mgZlpNWMHOr5KQWTNCbGASLs5tgSENiwXTc1CBYnNSCITEIFgfB4iBYHASLg2BxECwOgsVBsDgIFgfB4iBYnJiCIQfiCU7XJI3ntNlyT1O5jSfdbLmnqdzGk2623NNUbuNJN1vuaSq38aSbLfc0ldt40s2We5rKbTy7zUIqECwOgsVBsDgIFgfB4iBYHASLg2BxECxOKMHvP17O2eDrLLSfj+bmqc5La74Ncg77Nv56fhPDQ5zGv14KaXwRgQS/1fteZxp+Pe3880P19u2vOrP0623wxuvvYzX+8dtT/RKp8ctLuMaXEUbw881/T3+qdZLw0zm6JoOvX85/wEEbrxs+/R+n8fPL7y8RG7+cnSCNLyTkJbo5kn/Xl+jWSMjGT9/Vf/9xGr/24DiNd19CNL6IkILPF6Gbp/fvD/VBnS6kIU/TtfFLB64iNX4ZH+M0fn0J2PgiQk+y/vkzwp+q1fjFbege/LXnf3uq3n55ibTnnbMTovFFBBVcnUfejz9CDzZW46eB7a4KOMB3Gr/2rlh7XgUd4BcS9BJdD2GnAfL5fIn+fLwLNV20G/+se3EVp/FrD47T+PUlYOOLCNqD38w5xDuNZBGiya/GL5e3OI2fXiJE8G3j17NTYBwMuYJgcRAsDoLFQbA4CBYHweIgWBwEi4NgcRAsDoLFQbA4CBYHweIgWBwEi4NgcRAsDoLFOZrgz8fz02vf/kz4ztVdOZrgqkr6ruT9Oarg03+fP/9jzN3b6V/zTl9Bjiz48bZ6/357/v457bvRE3JkwT+fzs9JXB8rvD5dogaCz4LvzeWZBj0QbD2zrgiCz087ncbgt5RPDKUDwZePhLgXvUIfUfCxQLA4CBYHweIgWBwEi4NgcRAsDoLFQbA4CBYHweIgWBwEi4NgcRAsDoLFQbA4/wdB11Vb5QRu7wAAAABJRU5ErkJggg==;shadow=0;imageBorder=none;strokeWidth=10;clipPath=inset(33.33% 33.33% 33.33% 33.33% round 40%);imageBackground=none;" vertex="1" parent="1">
          <mxGeometry x="20" y="140" width="220" height="220" as="geometry" />
        </mxCell>
        <mxCell id="lfPM_c1tvvUKqw6qXb7t-2" value="" style="shape=image;imageAspect=0;aspect=fixed;verticalLabelPosition=bottom;verticalAlign=top;image=C:\Users\hamad\Desktop\hacking_king\img.png;" vertex="1" parent="1">
          <mxGeometry x="380" y="40" width="120" height="100" as="geometry" />
        </mxCell>
        <mxCell id="lfPM_c1tvvUKqw6qXb7t-29" value="Elearning" style="text;strokeColor=none;align=center;fillColor=none;html=1;verticalAlign=middle;whiteSpace=wrap;rounded=0;fontColor=#2618F0;fontStyle=1;fontFamily=Tahoma;fontSize=28;" vertex="1" parent="1">
          <mxGeometry x="40" y="10" width="70" height="30" as="geometry" />
        </mxCell>
      </root>
    </mxGraphModel>
  </diagram>
  <diagram id="Pr_u3gj5EgEsLHq1z7su" name="Page-2">
    <mxGraphModel dx="576" dy="427" grid="1" gridSize="10" guides="1" tooltips="1" connect="1" arrows="1" fold="1" page="1" pageScale="1" pageWidth="850" pageHeight="1100" math="0" shadow="0">
      <root>
        <mxCell id="0" />
        <mxCell id="1" parent="0" />
      </root>
    </mxGraphModel>
  </diagram>
</mxfile>
